<svg xmlns="http://www.w3.org/2000/svg" viewBox="0 0 916 600" width="91.6mm" height="60.0mm">
<defs>
  <radialGradient id="glow" cx="50%" cy="42%" r="60%">
    <stop offset="0%" stop-color="#141B24"/>
    <stop offset="100%" stop-color="#0D1117"/>
  </radialGradient>
</defs>
<rect x="0" y="0" width="916" height="600" fill="url(#glow)"/>
<g transform="translate(138.00 -56.00) scale(3.2)" opacity="0.1"><circle cx="100" cy="100" r="90" stroke="#C9A96E" stroke-width="0.5" opacity="0.3" fill="none"/><circle cx="100" cy="100" r="75" stroke="#C9A96E" stroke-width="0.5" opacity="0.25" fill="none"/><g opacity="0.6"><ellipse cx="100" cy="30" rx="8" ry="20" fill="#C9A96E" opacity="0.4" transform="rotate(0 100 100)"/><ellipse cx="100" cy="30" rx="8" ry="20" fill="#8B6F9E" opacity="0.35" transform="rotate(30 100 100)"/><ellipse cx="100" cy="30" rx="8" ry="20" fill="#3D6B5E" opacity="0.4" transform="rotate(60 100 100)"/><ellipse cx="100" cy="30" rx="8" ry="20" fill="#C9A96E" opacity="0.4" transform="rotate(90 100 100)"/><ellipse cx="100" cy="30" rx="8" ry="20" fill="#8B6F9E" opacity="0.35" transform="rotate(120 100 100)"/><ellipse cx="100" cy="30" rx="8" ry="20" fill="#3D6B5E" opacity="0.4" transform="rotate(150 100 100)"/><ellipse cx="100" cy="30" rx="8" ry="20" fill="#C9A96E" opacity="0.4" transform="rotate(180 100 100)"/><ellipse cx="100" cy="30" rx="8" ry="20" fill="#8B6F9E" opacity="0.35" transform="rotate(210 100 100)"/><ellipse cx="100" cy="30" rx="8" ry="20" fill="#3D6B5E" opacity="0.4" transform="rotate(240 100 100)"/><ellipse cx="100" cy="30" rx="8" ry="20" fill="#C9A96E" opacity="0.4" transform="rotate(270 100 100)"/><ellipse cx="100" cy="30" rx="8" ry="20" fill="#8B6F9E" opacity="0.35" transform="rotate(300 100 100)"/><ellipse cx="100" cy="30" rx="8" ry="20" fill="#3D6B5E" opacity="0.4" transform="rotate(330 100 100)"/></g><g opacity="0.8"><ellipse cx="100" cy="55" rx="5" ry="14" fill="#E2C98A" opacity="0.5" transform="rotate(0 100 100)"/><ellipse cx="100" cy="55" rx="5" ry="14" fill="#E2C98A" opacity="0.5" transform="rotate(45 100 100)"/><ellipse cx="100" cy="55" rx="5" ry="14" fill="#E2C98A" opacity="0.5" transform="rotate(90 100 100)"/><ellipse cx="100" cy="55" rx="5" ry="14" fill="#E2C98A" opacity="0.5" transform="rotate(135 100 100)"/><ellipse cx="100" cy="55" rx="5" ry="14" fill="#E2C98A" opacity="0.5" transform="rotate(180 100 100)"/><ellipse cx="100" cy="55" rx="5" ry="14" fill="#E2C98A" opacity="0.5" transform="rotate(225 100 100)"/><ellipse cx="100" cy="55" rx="5" ry="14" fill="#E2C98A" opacity="0.5" transform="rotate(270 100 100)"/><ellipse cx="100" cy="55" rx="5" ry="14" fill="#E2C98A" opacity="0.5" transform="rotate(315 100 100)"/></g><g stroke="#C9A96E" stroke-width="0.4" opacity="0.35" fill="none"><circle cx="100" cy="100" r="20"/><circle cx="120" cy="100" r="20"/><circle cx="80" cy="100" r="20"/><circle cx="110" cy="82.7" r="20"/><circle cx="90" cy="82.7" r="20"/><circle cx="110" cy="117.3" r="20"/><circle cx="90" cy="117.3" r="20"/></g><circle cx="100" cy="100" r="4" fill="#E2C98A" opacity="0.9"/><circle cx="100" cy="100" r="1.5" fill="#fff" opacity="0.8"/></g>
<g transform="translate(353.00 135.00) scale(1.05)" opacity="1.0"><circle cx="100" cy="100" r="90" stroke="#C9A96E" stroke-width="0.5" opacity="0.3" fill="none"/><circle cx="100" cy="100" r="75" stroke="#C9A96E" stroke-width="0.5" opacity="0.25" fill="none"/><g opacity="0.6"><ellipse cx="100" cy="30" rx="8" ry="20" fill="#C9A96E" opacity="0.4" transform="rotate(0 100 100)"/><ellipse cx="100" cy="30" rx="8" ry="20" fill="#8B6F9E" opacity="0.35" transform="rotate(30 100 100)"/><ellipse cx="100" cy="30" rx="8" ry="20" fill="#3D6B5E" opacity="0.4" transform="rotate(60 100 100)"/><ellipse cx="100" cy="30" rx="8" ry="20" fill="#C9A96E" opacity="0.4" transform="rotate(90 100 100)"/><ellipse cx="100" cy="30" rx="8" ry="20" fill="#8B6F9E" opacity="0.35" transform="rotate(120 100 100)"/><ellipse cx="100" cy="30" rx="8" ry="20" fill="#3D6B5E" opacity="0.4" transform="rotate(150 100 100)"/><ellipse cx="100" cy="30" rx="8" ry="20" fill="#C9A96E" opacity="0.4" transform="rotate(180 100 100)"/><ellipse cx="100" cy="30" rx="8" ry="20" fill="#8B6F9E" opacity="0.35" transform="rotate(210 100 100)"/><ellipse cx="100" cy="30" rx="8" ry="20" fill="#3D6B5E" opacity="0.4" transform="rotate(240 100 100)"/><ellipse cx="100" cy="30" rx="8" ry="20" fill="#C9A96E" opacity="0.4" transform="rotate(270 100 100)"/><ellipse cx="100" cy="30" rx="8" ry="20" fill="#8B6F9E" opacity="0.35" transform="rotate(300 100 100)"/><ellipse cx="100" cy="30" rx="8" ry="20" fill="#3D6B5E" opacity="0.4" transform="rotate(330 100 100)"/></g><g opacity="0.8"><ellipse cx="100" cy="55" rx="5" ry="14" fill="#E2C98A" opacity="0.5" transform="rotate(0 100 100)"/><ellipse cx="100" cy="55" rx="5" ry="14" fill="#E2C98A" opacity="0.5" transform="rotate(45 100 100)"/><ellipse cx="100" cy="55" rx="5" ry="14" fill="#E2C98A" opacity="0.5" transform="rotate(90 100 100)"/><ellipse cx="100" cy="55" rx="5" ry="14" fill="#E2C98A" opacity="0.5" transform="rotate(135 100 100)"/><ellipse cx="100" cy="55" rx="5" ry="14" fill="#E2C98A" opacity="0.5" transform="rotate(180 100 100)"/><ellipse cx="100" cy="55" rx="5" ry="14" fill="#E2C98A" opacity="0.5" transform="rotate(225 100 100)"/><ellipse cx="100" cy="55" rx="5" ry="14" fill="#E2C98A" opacity="0.5" transform="rotate(270 100 100)"/><ellipse cx="100" cy="55" rx="5" ry="14" fill="#E2C98A" opacity="0.5" transform="rotate(315 100 100)"/></g><g stroke="#C9A96E" stroke-width="0.4" opacity="0.35" fill="none"><circle cx="100" cy="100" r="20"/><circle cx="120" cy="100" r="20"/><circle cx="80" cy="100" r="20"/><circle cx="110" cy="82.7" r="20"/><circle cx="90" cy="82.7" r="20"/><circle cx="110" cy="117.3" r="20"/><circle cx="90" cy="117.3" r="20"/></g><circle cx="100" cy="100" r="4" fill="#E2C98A" opacity="0.9"/><circle cx="100" cy="100" r="1.5" fill="#fff" opacity="0.8"/></g>
<text x="458.0" y="432.0" text-anchor="middle" font-family="'Cormorant Garamond', Georgia, serif" font-size="88" font-weight="500" letter-spacing="1"><tspan fill="#F5F0E8">anjoy</tspan><tspan fill="#C9A96E">.space</tspan></text>
<text x="458.0" y="488.0" text-anchor="middle" font-family="'DM Mono', 'SFMono-Regular', monospace" font-size="20" letter-spacing="7" fill="#B8B0A0">MAKE  SPACE  TO  ENJOY</text>
<rect x="46" y="46" width="824" height="508" fill="none" stroke="#C9A96E" stroke-opacity="0.25" stroke-width="1"/>
</svg>