<svg xmlns="http://www.w3.org/2000/svg" viewBox="0 0 916 600" width="91.6mm" height="60.0mm">
<defs><radialGradient id="glow" cx="50%" cy="42%" r="60%"><stop offset="0%" stop-color="#141B24"/><stop offset="100%" stop-color="#0D1117"/></radialGradient></defs>
<rect x="0" y="0" width="916" height="600" fill="url(#glow)"/>
<g transform="translate(118.00 -40.00) scale(3.4)" opacity="0.06"><circle cx="100" cy="100" r="90" stroke="#C9A96E" stroke-width="0.5" opacity="0.3" fill="none"/><circle cx="100" cy="100" r="75" stroke="#C9A96E" stroke-width="0.5" opacity="0.25" fill="none"/><g opacity="0.6"><ellipse cx="100" cy="30" rx="8" ry="20" fill="#C9A96E" opacity="0.4" transform="rotate(0 100 100)"/><ellipse cx="100" cy="30" rx="8" ry="20" fill="#8B6F9E" opacity="0.35" transform="rotate(30 100 100)"/><ellipse cx="100" cy="30" rx="8" ry="20" fill="#3D6B5E" opacity="0.4" transform="rotate(60 100 100)"/><ellipse cx="100" cy="30" rx="8" ry="20" fill="#C9A96E" opacity="0.4" transform="rotate(90 100 100)"/><ellipse cx="100" cy="30" rx="8" ry="20" fill="#8B6F9E" opacity="0.35" transform="rotate(120 100 100)"/><ellipse cx="100" cy="30" rx="8" ry="20" fill="#3D6B5E" opacity="0.4" transform="rotate(150 100 100)"/><ellipse cx="100" cy="30" rx="8" ry="20" fill="#C9A96E" opacity="0.4" transform="rotate(180 100 100)"/><ellipse cx="100" cy="30" rx="8" ry="20" fill="#8B6F9E" opacity="0.35" transform="rotate(210 100 100)"/><ellipse cx="100" cy="30" rx="8" ry="20" fill="#3D6B5E" opacity="0.4" transform="rotate(240 100 100)"/><ellipse cx="100" cy="30" rx="8" ry="20" fill="#C9A96E" opacity="0.4" transform="rotate(270 100 100)"/><ellipse cx="100" cy="30" rx="8" ry="20" fill="#8B6F9E" opacity="0.35" transform="rotate(300 100 100)"/><ellipse cx="100" cy="30" rx="8" ry="20" fill="#3D6B5E" opacity="0.4" transform="rotate(330 100 100)"/></g><g opacity="0.8"><ellipse cx="100" cy="55" rx="5" ry="14" fill="#E2C98A" opacity="0.5" transform="rotate(0 100 100)"/><ellipse cx="100" cy="55" rx="5" ry="14" fill="#E2C98A" opacity="0.5" transform="rotate(45 100 100)"/><ellipse cx="100" cy="55" rx="5" ry="14" fill="#E2C98A" opacity="0.5" transform="rotate(90 100 100)"/><ellipse cx="100" cy="55" rx="5" ry="14" fill="#E2C98A" opacity="0.5" transform="rotate(135 100 100)"/><ellipse cx="100" cy="55" rx="5" ry="14" fill="#E2C98A" opacity="0.5" transform="rotate(180 100 100)"/><ellipse cx="100" cy="55" rx="5" ry="14" fill="#E2C98A" opacity="0.5" transform="rotate(225 100 100)"/><ellipse cx="100" cy="55" rx="5" ry="14" fill="#E2C98A" opacity="0.5" transform="rotate(270 100 100)"/><ellipse cx="100" cy="55" rx="5" ry="14" fill="#E2C98A" opacity="0.5" transform="rotate(315 100 100)"/></g><g stroke="#C9A96E" stroke-width="0.4" opacity="0.35" fill="none"><circle cx="100" cy="100" r="20"/><circle cx="120" cy="100" r="20"/><circle cx="80" cy="100" r="20"/><circle cx="110" cy="82.7" r="20"/><circle cx="90" cy="82.7" r="20"/><circle cx="110" cy="117.3" r="20"/><circle cx="90" cy="117.3" r="20"/></g><circle cx="100" cy="100" r="4" fill="#E2C98A" opacity="0.9"/><circle cx="100" cy="100" r="1.5" fill="#fff" opacity="0.8"/></g>
<text x="70" y="100" font-family="'Cormorant Garamond', Georgia, serif" font-size="46" font-weight="500"><tspan fill="#F5F0E8">anjoy</tspan><tspan fill="#C9A96E">.space</tspan></text>
<rect x="70" y="180.0" width="250" height="250" rx="20" fill="#F5F0E8"/>
<g transform="translate(98.00 208.00) scale(6.6897)"><path d="M0 0h1v1h-1zM1 0h1v1h-1zM2 0h1v1h-1zM3 0h1v1h-1zM4 0h1v1h-1zM5 0h1v1h-1zM6 0h1v1h-1zM8 0h1v1h-1zM9 0h1v1h-1zM11 0h1v1h-1zM13 0h1v1h-1zM15 0h1v1h-1zM16 0h1v1h-1zM18 0h1v1h-1zM22 0h1v1h-1zM23 0h1v1h-1zM24 0h1v1h-1zM25 0h1v1h-1zM26 0h1v1h-1zM27 0h1v1h-1zM28 0h1v1h-1zM0 1h1v1h-1zM6 1h1v1h-1zM9 1h1v1h-1zM11 1h1v1h-1zM12 1h1v1h-1zM13 1h1v1h-1zM15 1h1v1h-1zM16 1h1v1h-1zM17 1h1v1h-1zM18 1h1v1h-1zM22 1h1v1h-1zM28 1h1v1h-1zM0 2h1v1h-1zM2 2h1v1h-1zM3 2h1v1h-1zM4 2h1v1h-1zM6 2h1v1h-1zM8 2h1v1h-1zM9 2h1v1h-1zM11 2h1v1h-1zM13 2h1v1h-1zM14 2h1v1h-1zM18 2h1v1h-1zM19 2h1v1h-1zM22 2h1v1h-1zM24 2h1v1h-1zM25 2h1v1h-1zM26 2h1v1h-1zM28 2h1v1h-1zM0 3h1v1h-1zM2 3h1v1h-1zM3 3h1v1h-1zM4 3h1v1h-1zM6 3h1v1h-1zM10 3h1v1h-1zM11 3h1v1h-1zM12 3h1v1h-1zM14 3h1v1h-1zM17 3h1v1h-1zM20 3h1v1h-1zM22 3h1v1h-1zM24 3h1v1h-1zM25 3h1v1h-1zM26 3h1v1h-1zM28 3h1v1h-1zM0 4h1v1h-1zM2 4h1v1h-1zM3 4h1v1h-1zM4 4h1v1h-1zM6 4h1v1h-1zM8 4h1v1h-1zM10 4h1v1h-1zM14 4h1v1h-1zM16 4h1v1h-1zM18 4h1v1h-1zM19 4h1v1h-1zM20 4h1v1h-1zM22 4h1v1h-1zM24 4h1v1h-1zM25 4h1v1h-1zM26 4h1v1h-1zM28 4h1v1h-1zM0 5h1v1h-1zM6 5h1v1h-1zM9 5h1v1h-1zM12 5h1v1h-1zM13 5h1v1h-1zM16 5h1v1h-1zM22 5h1v1h-1zM28 5h1v1h-1zM0 6h1v1h-1zM1 6h1v1h-1zM2 6h1v1h-1zM3 6h1v1h-1zM4 6h1v1h-1zM5 6h1v1h-1zM6 6h1v1h-1zM8 6h1v1h-1zM10 6h1v1h-1zM12 6h1v1h-1zM14 6h1v1h-1zM16 6h1v1h-1zM18 6h1v1h-1zM20 6h1v1h-1zM22 6h1v1h-1zM23 6h1v1h-1zM24 6h1v1h-1zM25 6h1v1h-1zM26 6h1v1h-1zM27 6h1v1h-1zM28 6h1v1h-1zM8 7h1v1h-1zM12 7h1v1h-1zM13 7h1v1h-1zM14 7h1v1h-1zM15 7h1v1h-1zM16 7h1v1h-1zM18 7h1v1h-1zM19 7h1v1h-1zM20 7h1v1h-1zM5 8h1v1h-1zM6 8h1v1h-1zM9 8h1v1h-1zM10 8h1v1h-1zM13 8h1v1h-1zM15 8h1v1h-1zM16 8h1v1h-1zM18 8h1v1h-1zM19 8h1v1h-1zM20 8h1v1h-1zM22 8h1v1h-1zM24 8h1v1h-1zM26 8h1v1h-1zM28 8h1v1h-1zM0 9h1v1h-1zM4 9h1v1h-1zM5 9h1v1h-1zM12 9h1v1h-1zM18 9h1v1h-1zM19 9h1v1h-1zM23 9h1v1h-1zM24 9h1v1h-1zM25 9h1v1h-1zM27 9h1v1h-1zM2 10h1v1h-1zM3 10h1v1h-1zM6 10h1v1h-1zM7 10h1v1h-1zM8 10h1v1h-1zM9 10h1v1h-1zM11 10h1v1h-1zM12 10h1v1h-1zM13 10h1v1h-1zM20 10h1v1h-1zM21 10h1v1h-1zM22 10h1v1h-1zM23 10h1v1h-1zM26 10h1v1h-1zM0 11h1v1h-1zM1 11h1v1h-1zM2 11h1v1h-1zM4 11h1v1h-1zM5 11h1v1h-1zM8 11h1v1h-1zM9 11h1v1h-1zM11 11h1v1h-1zM13 11h1v1h-1zM15 11h1v1h-1zM18 11h1v1h-1zM22 11h1v1h-1zM24 11h1v1h-1zM25 11h1v1h-1zM2 12h1v1h-1zM3 12h1v1h-1zM5 12h1v1h-1zM6 12h1v1h-1zM8 12h1v1h-1zM9 12h1v1h-1zM11 12h1v1h-1zM12 12h1v1h-1zM13 12h1v1h-1zM15 12h1v1h-1zM17 12h1v1h-1zM18 12h1v1h-1zM19 12h1v1h-1zM20 12h1v1h-1zM21 12h1v1h-1zM22 12h1v1h-1zM27 12h1v1h-1zM1 13h1v1h-1zM8 13h1v1h-1zM11 13h1v1h-1zM13 13h1v1h-1zM15 13h1v1h-1zM16 13h1v1h-1zM19 13h1v1h-1zM20 13h1v1h-1zM22 13h1v1h-1zM24 13h1v1h-1zM25 13h1v1h-1zM28 13h1v1h-1zM1 14h1v1h-1zM2 14h1v1h-1zM3 14h1v1h-1zM5 14h1v1h-1zM6 14h1v1h-1zM7 14h1v1h-1zM10 14h1v1h-1zM15 14h1v1h-1zM20 14h1v1h-1zM23 14h1v1h-1zM27 14h1v1h-1zM1 15h1v1h-1zM5 15h1v1h-1zM8 15h1v1h-1zM9 15h1v1h-1zM10 15h1v1h-1zM11 15h1v1h-1zM12 15h1v1h-1zM14 15h1v1h-1zM16 15h1v1h-1zM17 15h1v1h-1zM18 15h1v1h-1zM20 15h1v1h-1zM21 15h1v1h-1zM22 15h1v1h-1zM24 15h1v1h-1zM25 15h1v1h-1zM26 15h1v1h-1zM27 15h1v1h-1zM28 15h1v1h-1zM3 16h1v1h-1zM4 16h1v1h-1zM6 16h1v1h-1zM10 16h1v1h-1zM12 16h1v1h-1zM13 16h1v1h-1zM14 16h1v1h-1zM16 16h1v1h-1zM17 16h1v1h-1zM18 16h1v1h-1zM21 16h1v1h-1zM25 16h1v1h-1zM26 16h1v1h-1zM27 16h1v1h-1zM28 16h1v1h-1zM0 17h1v1h-1zM3 17h1v1h-1zM4 17h1v1h-1zM7 17h1v1h-1zM10 17h1v1h-1zM19 17h1v1h-1zM20 17h1v1h-1zM22 17h1v1h-1zM23 17h1v1h-1zM24 17h1v1h-1zM28 17h1v1h-1zM0 18h1v1h-1zM1 18h1v1h-1zM2 18h1v1h-1zM4 18h1v1h-1zM5 18h1v1h-1zM6 18h1v1h-1zM7 18h1v1h-1zM8 18h1v1h-1zM10 18h1v1h-1zM11 18h1v1h-1zM12 18h1v1h-1zM13 18h1v1h-1zM15 18h1v1h-1zM16 18h1v1h-1zM17 18h1v1h-1zM19 18h1v1h-1zM24 18h1v1h-1zM28 18h1v1h-1zM0 19h1v1h-1zM2 19h1v1h-1zM7 19h1v1h-1zM8 19h1v1h-1zM9 19h1v1h-1zM12 19h1v1h-1zM13 19h1v1h-1zM15 19h1v1h-1zM16 19h1v1h-1zM19 19h1v1h-1zM21 19h1v1h-1zM22 19h1v1h-1zM24 19h1v1h-1zM25 19h1v1h-1zM0 20h1v1h-1zM5 20h1v1h-1zM6 20h1v1h-1zM7 20h1v1h-1zM10 20h1v1h-1zM11 20h1v1h-1zM12 20h1v1h-1zM13 20h1v1h-1zM14 20h1v1h-1zM15 20h1v1h-1zM17 20h1v1h-1zM20 20h1v1h-1zM21 20h1v1h-1zM22 20h1v1h-1zM23 20h1v1h-1zM24 20h1v1h-1zM25 20h1v1h-1zM26 20h1v1h-1zM27 20h1v1h-1zM28 20h1v1h-1zM8 21h1v1h-1zM9 21h1v1h-1zM10 21h1v1h-1zM11 21h1v1h-1zM12 21h1v1h-1zM14 21h1v1h-1zM15 21h1v1h-1zM18 21h1v1h-1zM20 21h1v1h-1zM24 21h1v1h-1zM25 21h1v1h-1zM26 21h1v1h-1zM27 21h1v1h-1zM0 22h1v1h-1zM1 22h1v1h-1zM2 22h1v1h-1zM3 22h1v1h-1zM4 22h1v1h-1zM5 22h1v1h-1zM6 22h1v1h-1zM9 22h1v1h-1zM12 22h1v1h-1zM13 22h1v1h-1zM14 22h1v1h-1zM17 22h1v1h-1zM18 22h1v1h-1zM19 22h1v1h-1zM20 22h1v1h-1zM22 22h1v1h-1zM24 22h1v1h-1zM0 23h1v1h-1zM6 23h1v1h-1zM8 23h1v1h-1zM9 23h1v1h-1zM11 23h1v1h-1zM13 23h1v1h-1zM14 23h1v1h-1zM15 23h1v1h-1zM17 23h1v1h-1zM19 23h1v1h-1zM20 23h1v1h-1zM24 23h1v1h-1zM25 23h1v1h-1zM27 23h1v1h-1zM28 23h1v1h-1zM0 24h1v1h-1zM2 24h1v1h-1zM3 24h1v1h-1zM4 24h1v1h-1zM6 24h1v1h-1zM9 24h1v1h-1zM10 24h1v1h-1zM12 24h1v1h-1zM16 24h1v1h-1zM17 24h1v1h-1zM18 24h1v1h-1zM19 24h1v1h-1zM20 24h1v1h-1zM21 24h1v1h-1zM22 24h1v1h-1zM23 24h1v1h-1zM24 24h1v1h-1zM0 25h1v1h-1zM2 25h1v1h-1zM3 25h1v1h-1zM4 25h1v1h-1zM6 25h1v1h-1zM9 25h1v1h-1zM10 25h1v1h-1zM11 25h1v1h-1zM19 25h1v1h-1zM20 25h1v1h-1zM23 25h1v1h-1zM27 25h1v1h-1zM0 26h1v1h-1zM2 26h1v1h-1zM3 26h1v1h-1zM4 26h1v1h-1zM6 26h1v1h-1zM13 26h1v1h-1zM15 26h1v1h-1zM19 26h1v1h-1zM20 26h1v1h-1zM21 26h1v1h-1zM22 26h1v1h-1zM23 26h1v1h-1zM24 26h1v1h-1zM27 26h1v1h-1zM0 27h1v1h-1zM6 27h1v1h-1zM9 27h1v1h-1zM10 27h1v1h-1zM11 27h1v1h-1zM12 27h1v1h-1zM14 27h1v1h-1zM18 27h1v1h-1zM21 27h1v1h-1zM24 27h1v1h-1zM25 27h1v1h-1zM26 27h1v1h-1zM28 27h1v1h-1zM0 28h1v1h-1zM1 28h1v1h-1zM2 28h1v1h-1zM3 28h1v1h-1zM4 28h1v1h-1zM5 28h1v1h-1zM6 28h1v1h-1zM11 28h1v1h-1zM12 28h1v1h-1zM13 28h1v1h-1zM14 28h1v1h-1zM16 28h1v1h-1zM19 28h1v1h-1zM22 28h1v1h-1zM24 28h1v1h-1zM26 28h1v1h-1z" fill="#0D1117"/></g>
<text x="195.0" y="472.0" text-anchor="middle" font-family="'DM Mono', 'SFMono-Regular', monospace" font-size="18" letter-spacing="4" fill="#B8B0A0">TAP  OR  SCAN</text>
<text x="390" y="198.0" font-family="'DM Mono', 'SFMono-Regular', monospace" font-size="18" letter-spacing="6" fill="#C9A96E">CONNECT</text>
<text x="390" y="246.0" font-family="'DM Mono', 'SFMono-Regular', monospace" font-size="14" letter-spacing="3" fill="#B8B0A0">WEB</text>
<text x="390" y="272.0" font-family="'DM Sans', -apple-system, Segoe UI, sans-serif" font-size="26" fill="#F5F0E8">anjoy.space</text>
<line x1="390" y1="286.0" x2="690" y2="286.0" stroke="#C9A96E" stroke-opacity="0.15"/>
<text x="390" y="310.0" font-family="'DM Mono', 'SFMono-Regular', monospace" font-size="14" letter-spacing="3" fill="#B8B0A0">EMAIL</text>
<text x="390" y="336.0" font-family="'DM Sans', -apple-system, Segoe UI, sans-serif" font-size="26" fill="#F5F0E8">hello@anjoy.space</text>
<line x1="390" y1="350.0" x2="690" y2="350.0" stroke="#C9A96E" stroke-opacity="0.15"/>
<text x="390" y="374.0" font-family="'DM Mono', 'SFMono-Regular', monospace" font-size="14" letter-spacing="3" fill="#B8B0A0">INSTAGRAM</text>
<text x="390" y="400.0" font-family="'DM Sans', -apple-system, Segoe UI, sans-serif" font-size="26" fill="#F5F0E8">@anjoy_space</text>
<line x1="390" y1="414.0" x2="690" y2="414.0" stroke="#C9A96E" stroke-opacity="0.15"/>
<text x="390" y="438.0" font-family="'DM Mono', 'SFMono-Regular', monospace" font-size="14" letter-spacing="3" fill="#B8B0A0">TELEGRAM</text>
<text x="390" y="464.0" font-family="'DM Sans', -apple-system, Segoe UI, sans-serif" font-size="26" fill="#F5F0E8">@ovakimianani</text>
<line x1="390" y1="478.0" x2="690" y2="478.0" stroke="#C9A96E" stroke-opacity="0.15"/>
<text x="390" y="502.0" font-family="'DM Mono', 'SFMono-Regular', monospace" font-size="14" letter-spacing="3" fill="#B8B0A0">WHATSAPP</text>
<text x="390" y="528.0" font-family="'DM Sans', -apple-system, Segoe UI, sans-serif" font-size="26" fill="#F5F0E8">+7 915 159 3376</text>
<line x1="390" y1="542.0" x2="690" y2="542.0" stroke="#C9A96E" stroke-opacity="0.15"/>
<rect x="46" y="46" width="824" height="508" fill="none" stroke="#C9A96E" stroke-opacity="0.25" stroke-width="1"/>
</svg>